<?xml version="1.0" encoding="UTF-8"?>
<svg version="1.1" xmlns="http://www.w3.org/2000/svg" width="2000" height="2000">
<path d="M0 0 C75.19594694 -2.04872913 154.64597063 17.22929445 223 48 C224.37671875 48.61609131 224.37671875 48.61609131 225.78125 49.24462891 C253.20743311 61.61730563 279.42571085 77.26522277 303 96 C303.90105469 96.71027344 304.80210937 97.42054688 305.73046875 98.15234375 C311.74471595 102.9790104 317.45854588 108.07547403 323.1015625 113.32421875 C325.67642742 115.70128407 328.29682966 118.00939108 330.9375 120.3125 C340.90388971 129.26943223 349.71930523 139.49104555 358 150 C358.72960937 150.89976562 359.45921875 151.79953125 360.2109375 152.7265625 C410.08770154 215.52820227 439.4039221 297.63224468 449.296875 376.88671875 C449.40046326 377.70094299 449.50405151 378.51516724 449.61077881 379.35406494 C450.10309319 383.25425966 450.56342576 387.15325942 450.96386719 391.06396484 C451.98497543 400.1295466 454.27251755 406.70632135 460 414 C460.76183594 415.01449219 461.52367187 416.02898437 462.30859375 417.07421875 C463.01113281 417.93660156 463.71367188 418.79898437 464.4375 419.6875 C470.13014764 426.85627236 475.09783068 434.50978308 480.11499023 442.15893555 C483.99823212 448.06501239 488.02524869 453.82019152 492.20947266 459.51660156 C494.50205066 462.69632661 496.5914588 465.96343565 498.625 469.3125 C499.47679406 470.69597218 500.32972433 472.07874525 501.18359375 473.4609375 C501.63460449 474.19151367 502.08561523 474.92208984 502.55029297 475.67480469 C504.64607156 479.03623872 506.79036033 482.3659363 508.9309082 485.69897461 C531.09021816 520.24532344 551.21245084 555.99204481 570.09765625 592.41796875 C571.98393211 596.05502121 573.88673305 599.68240928 575.80859375 603.30078125 C603.19033534 654.90725372 625.4295 709.38003032 646 764 C646.3403125 763.083396 646.680625 762.16679199 647.03125 761.22241211 C660.52431865 724.94775277 675.10779913 689.21735835 691.10528564 653.97369385 C691.9427827 652.12621842 692.77599284 650.27680133 693.60888672 648.42724609 C707.04222628 618.6414073 721.49476737 589.07603016 737.54101562 560.60595703 C739.19973023 557.64325294 740.82715503 554.66439029 742.453125 551.68359375 C750.91659436 536.21950455 759.87443997 521.13107057 769.1015625 506.11523438 C770.75077522 503.40896453 772.37069738 500.68979011 773.96875 497.953125 C782.83480063 482.78963353 792.69020813 468.28692106 802.49755859 453.72314453 C804.75892172 450.36318013 807.00219113 446.99144098 809.2421875 443.6171875 C812.71540968 438.40207042 816.27122694 433.25055194 819.875 428.125 C820.69677734 426.95130859 820.69677734 426.95130859 821.53515625 425.75390625 C822.09847656 424.95082031 822.66179688 424.14773438 823.2421875 423.3203125 C823.82274902 422.47903809 824.40331055 421.63776367 825.00146484 420.77099609 C826.47899926 418.72237459 827.97815318 416.78733435 829.58056641 414.84228516 C836.19315002 406.60965292 838.57027879 399.88858609 839.43249512 389.4197998 C839.77300926 385.36062078 840.2681128 381.31880979 840.7421875 377.2734375 C840.83761841 376.43180054 840.93304932 375.59016357 841.03137207 374.72302246 C851.02887795 289.06211158 886.86489096 192.3827693 950.4375 129.5625 C952.17065598 127.82934402 953.73206047 125.99811352 955.3125 124.125 C959.49065506 119.30121392 964.19720819 115.18870672 969 111 C970.10362221 110.01126168 971.20644595 109.02163159 972.30859375 108.03125 C997.59233077 85.48736581 1026.62526878 67.70109387 1057.03759766 52.95458984 C1058.96175426 52.01860424 1060.87727617 51.06644309 1062.79296875 50.11328125 C1131.09456667 16.57920101 1214.10293483 -1.39201728 1290 0 C1291.71612389 86.43984037 1271.58005819 174.72407979 1209 291 C1208.25878906 292.07507813 1207.51757812 293.15015625 1206.75390625 294.2578125 C1197.89016276 307.00518278 1188.09303887 318.9820106 1177.4921875 330.3203125 C1175.20962532 332.7746035 1173.00537641 335.27831987 1170.8125 337.8125 C1167.82047973 341.19136733 1164.67792805 344.17078988 1161.23046875 347.078125 C1158.59592096 349.34817319 1156.0912456 351.73769856 1153.5625 354.125 C1146.16182356 360.99842307 1138.10842682 366.99511971 1130 373 C1129.40993164 373.4419873 1128.81986328 373.88397461 1128.21191406 374.33935547 C1094.95877752 399.19670593 1057.0079238 417.21602826 1018 431 C1016.56938232 431.50974365 1016.56938232 431.50974365 1015.10986328 432.02978516 C981.59093594 443.88300299 946.79481925 451.90785349 911.6875 457.3125 C910.88982208 457.43578674 910.09214417 457.55907349 909.27029419 457.68609619 C906.93505987 458.04358826 904.59871419 458.39250359 902.26171875 458.73828125 C901.50722946 458.85281143 900.75274017 458.96734161 899.97538757 459.08534241 C895.92169876 459.6752335 891.91482447 460.09268611 887.82324219 460.30981445 C879.32269996 460.5102465 879.32269996 460.5102465 871.65405273 463.59155273 C869.9564817 465.84194674 868.93312691 467.95090056 867.875 470.5625 C867.43003174 471.47725098 866.98506348 472.39200195 866.52661133 473.33447266 C865.52736855 475.39141113 864.55693665 477.46251552 863.61083984 479.54443359 C861.8561041 483.30868484 859.96265315 486.97525483 858.01953125 490.64453125 C853.58116638 499.04729985 849.27217025 507.51169372 845 516 C844.51339905 516.96453094 844.51339905 516.96453094 844.01696777 517.94854736 C826.68804636 552.32961652 811.95096186 587.85093426 798.73516846 623.99700928 C797.62583944 627.01941279 796.49658348 630.03436515 795.37109375 633.05078125 C762.07729554 723.21983521 742.74529323 818.90355402 724 1036 C723.97131836 1036.91185059 723.94263672 1037.82370117 723.91308594 1038.76318359 C723.60974737 1048.95574339 724.25422676 1058.37104217 726.34375 1068.36328125 C727 1072 727 1072 727 1078 C673.54 1078 620.08 1078 565 1078 C565.33 1075.03 565.66 1072.06 566 1069 C566.09656338 1066.5377149 566.15279231 1064.07350609 566.16796875 1061.609375 C566.17432091 1060.58224396 566.17432091 1060.58224396 566.18080139 1059.53436279 C566.19075019 1057.27284689 566.19068792 1055.0115343 566.1875 1052.75 C566.18689575 1051.95134521 566.1862915 1051.15269043 566.18566895 1050.32983398 C565.99111843 953.61450162 553.77043485 856.30139748 445.73925781 517.54150391 C444.59771052 515.21706749 443.45894491 512.89126247 442.32324219 510.56396484 C430.232572 485.68670388 430.232572 485.68670388 416 462 C413.35837381 461.44874564 410.88835343 461.08741116 408.21484375 460.82421875 C406.57031208 460.63778036 404.92578085 460.45133813 403.28125 460.26489258 C402.41113281 460.17140533 401.54101562 460.07791809 400.64453125 459.9815979 C396.04873946 459.48230085 391.46000939 458.9257179 386.87109375 458.3671875 C385.94271698 458.25439957 385.01434021 458.14161163 384.05783081 458.02540588 C332.60560598 451.67437878 281.29285335 437.15831079 234 416 C233.04689941 415.57654297 232.09379883 415.15308594 231.11181641 414.71679688 C197.92698868 399.83697716 166.21311308 380.18595286 139 356 C138.26676514 355.35289062 137.53353027 354.70578125 136.77807617 354.0390625 C130.46830671 348.42432698 124.41137665 342.59448732 118.4375 336.625 C117.55642578 335.75617188 116.67535156 334.88734375 115.76757812 333.9921875 C109.73905342 327.97701008 104.28318185 321.67468102 99 315 C98.40437256 314.26362305 97.80874512 313.52724609 97.19506836 312.76855469 C82.85654376 295.0345574 70.95089562 275.97770542 60 256 C59.37399902 254.86038818 58.74799805 253.72077637 58.10302734 252.54663086 C53.4130133 243.93053105 49.16511244 235.18319495 45.25 226.1875 C44.95518738 225.51246429 44.66037476 224.83742859 44.35662842 224.14193726 C33.34724553 198.81432649 24.76760634 172.76684566 18 146 C17.70287109 144.85305664 17.40574219 143.70611328 17.09960938 142.52441406 C8.81506682 110.31577314 3.66383341 77.13839885 1 44 C0.90501221 42.89849609 0.81002441 41.79699219 0.7121582 40.66210938 C-0.00074844 31.79982377 -0.11917278 23.00954863 -0.0625 14.125 C-0.05746511 12.74349124 -0.05290579 11.36198067 -0.04882812 9.98046875 C-0.03719571 6.65359754 -0.0208528 3.32682398 0 0 Z " fill="#7E4032" transform="translate(355,484)"/>
<path d="M0 0 C1.71612389 86.43984037 -18.41994181 174.72407979 -81 291 C-81.74121094 292.07507813 -82.48242188 293.15015625 -83.24609375 294.2578125 C-92.10983724 307.00518278 -101.90696113 318.9820106 -112.5078125 330.3203125 C-114.79037468 332.7746035 -116.99462359 335.27831987 -119.1875 337.8125 C-122.17952027 341.19136733 -125.32207195 344.17078988 -128.76953125 347.078125 C-131.40407904 349.34817319 -133.9087544 351.73769856 -136.4375 354.125 C-143.83817644 360.99842307 -151.89157318 366.99511971 -160 373 C-160.59006836 373.4419873 -161.18013672 373.88397461 -161.78808594 374.33935547 C-195.04122248 399.19670593 -232.9920762 417.21602826 -272 431 C-272.95374512 431.3398291 -273.90749023 431.6796582 -274.89013672 432.02978516 C-320.28122276 448.08132598 -368.9539118 458.37623782 -417 462 C-411.21981524 445.62837843 -399.62240698 430.46203825 -390.07421875 416.11865234 C-388.2589672 413.38936523 -386.45192345 410.65495978 -384.64840698 407.91792297 C-376.1842176 395.07768628 -367.57042707 382.37952908 -358.45947266 369.98583984 C-356.02085731 366.66772388 -353.59920051 363.33771393 -351.1875 360 C-350.76017578 359.41758545 -350.33285156 358.8351709 -349.89257812 358.23510742 C-347.6726507 355.40638845 -347.6726507 355.40638845 -347 352 C-347.95700806 351.48783936 -347.95700806 351.48783936 -348.93334961 350.96533203 C-351.93664102 349.35541466 -354.93738381 347.74082686 -357.9375 346.125 C-359.02385742 345.54089355 -360.11021484 344.95678711 -361.22949219 344.35498047 C-368.56227626 340.3881885 -375.78299474 336.28246648 -382.82006836 331.80908203 C-386.18187731 329.59448029 -386.18187731 329.59448029 -390.04638672 329.23779297 C-393.32887336 330.51846321 -395.2020345 333.33825273 -397.375 336 C-397.89247803 336.61939453 -398.40995605 337.23878906 -398.94311523 337.87695312 C-400.63777639 339.91064749 -402.31869357 341.95525774 -404 344 C-405.16986194 345.40684152 -406.34044099 346.81308702 -407.51171875 348.21875 C-414.82951549 357.02590278 -421.98715917 365.94857388 -429 375 C-429.41169434 375.53012695 -429.82338867 376.06025391 -430.24755859 376.60644531 C-434.29810399 381.8264353 -438.31468456 387.0694188 -442.2578125 392.37109375 C-442.80703369 393.10859863 -443.35625488 393.84610352 -443.92211914 394.60595703 C-445.00243403 396.0591325 -446.0798247 397.51448716 -447.15405273 398.97216797 C-448.41253095 400.66583258 -449.7030823 402.33558667 -451 404 C-451.33 404 -451.66 404 -452 404 C-452.41709844 394.94896375 -450.89489411 386.16084074 -449.5 377.25 C-449.36750854 376.39708374 -449.23501709 375.54416748 -449.09851074 374.66540527 C-435.46236056 287.57585944 -404.70170307 192.1963491 -339.5625 129.5625 C-337.82934402 127.82934402 -336.26793953 125.99811352 -334.6875 124.125 C-330.50934494 119.30121392 -325.80279181 115.18870672 -321 111 C-319.89637779 110.01126168 -318.79355405 109.02163159 -317.69140625 108.03125 C-292.40766923 85.48736581 -263.37473122 67.70109387 -232.96240234 52.95458984 C-231.03824574 52.01860424 -229.12272383 51.06644309 -227.20703125 50.11328125 C-158.90543333 16.57920101 -75.89706517 -1.39201728 0 0 Z " fill="#70BC59" transform="translate(1645,484)"/>
<path d="M0 0 C75.19594694 -2.04872913 154.64597063 17.22929445 223 48 C224.37671875 48.61609131 224.37671875 48.61609131 225.78125 49.24462891 C253.20743311 61.61730563 279.42571085 77.26522277 303 96 C303.90105469 96.71027344 304.80210937 97.42054688 305.73046875 98.15234375 C311.74471595 102.9790104 317.45854588 108.07547403 323.1015625 113.32421875 C325.67642742 115.70128407 328.29682966 118.00939108 330.9375 120.3125 C340.90388971 129.26943223 349.71930523 139.49104555 358 150 C358.72960937 150.89976562 359.45921875 151.79953125 360.2109375 152.7265625 C416.3493516 223.41247261 441.29957629 312.21938114 453 403 C452.34 403.33 451.68 403.66 451 404 C450.64397705 403.50822266 450.2879541 403.01644531 449.92114258 402.50976562 C442.5656654 392.37466385 435.05165221 382.43952696 427.08984375 372.7734375 C424.12160461 369.1678918 421.24128909 365.49926626 418.375 361.8125 C414.36851869 356.67323164 410.23580821 351.66173888 406.00366211 346.70703125 C402.19016533 342.24244966 398.47225772 337.70805067 394.77734375 333.14453125 C393.02744291 330.96529769 393.02744291 330.96529769 391 329 C387.61587318 329.39490621 384.87943543 331.00962563 381.921875 332.625 C380.93251953 333.16294189 379.94316406 333.70088379 378.92382812 334.25512695 C377.87646484 334.83093506 376.82910156 335.40674316 375.75 336 C374.68201172 336.58289795 373.61402344 337.1657959 372.51367188 337.76635742 C363.9691385 342.44003221 355.46436999 347.18277767 347 352 C348.51701534 356.62079385 351.17148797 360.09076756 354.125 363.875 C373.36962993 389.08030381 390.55573533 415.90575462 407 443 C407.50772949 443.83047852 408.01545898 444.66095703 408.53857422 445.51660156 C409.99359702 447.90128717 411.43654014 450.29279561 412.875 452.6875 C413.31062256 453.40107666 413.74624512 454.11465332 414.19506836 454.84985352 C415.19297538 456.53076876 416.10616336 458.26150912 417 460 C416.67 460.66 416.34 461.32 416 462 C353.22246322 454.7461396 291.97288749 441.93644249 234 416 C233.04689941 415.57654297 232.09379883 415.15308594 231.11181641 414.71679688 C197.92698868 399.83697716 166.21311308 380.18595286 139 356 C138.26676514 355.35289062 137.53353027 354.70578125 136.77807617 354.0390625 C130.46830671 348.42432698 124.41137665 342.59448732 118.4375 336.625 C117.55642578 335.75617188 116.67535156 334.88734375 115.76757812 333.9921875 C109.73905342 327.97701008 104.28318185 321.67468102 99 315 C98.40437256 314.26362305 97.80874512 313.52724609 97.19506836 312.76855469 C82.85654376 295.0345574 70.95089562 275.97770542 60 256 C59.37399902 254.86038818 58.74799805 253.72077637 58.10302734 252.54663086 C53.4130133 243.93053105 49.16511244 235.18319495 45.25 226.1875 C44.95518738 225.51246429 44.66037476 224.83742859 44.35662842 224.14193726 C33.34724553 198.81432649 24.76760634 172.76684566 18 146 C17.70287109 144.85305664 17.40574219 143.70611328 17.09960938 142.52441406 C8.81506682 110.31577314 3.66383341 77.13839885 1 44 C0.90501221 42.89849609 0.81002441 41.79699219 0.7121582 40.66210938 C-0.00074844 31.79982377 -0.11917278 23.00954863 -0.0625 14.125 C-0.05746511 12.74349124 -0.05290579 11.36198067 -0.04882812 9.98046875 C-0.03719571 6.65359754 -0.0208528 3.32682398 0 0 Z " fill="#71BC59" transform="translate(355,484)"/>
<path d="M0 0 C0.54188965 0.37592285 1.0837793 0.7518457 1.64208984 1.13916016 C25.22268096 17.55619751 47.46568803 36.33527718 67.0625 57.375 C67.56934326 57.91640625 68.07618652 58.4578125 68.59838867 59.015625 C72 62.74778907 72 62.74778907 72 65 C70.08034676 66.69435632 68.15562686 68.2596677 66.125 69.8125 C65.18756958 70.53675171 65.18756958 70.53675171 64.23120117 71.27563477 C0.85738056 119.89871923 -76.76846099 155.38529413 -158.26147461 145.47851562 C-201.54682719 139.58820463 -242.47900627 121.05531395 -278 96 C-278.70962891 95.50532227 -279.41925781 95.01064453 -280.15039062 94.50097656 C-289.92368042 87.67311934 -299.1942549 80.51151837 -308.11865234 72.61035156 C-310.40952295 70.64946621 -312.77132114 68.78637638 -315.12890625 66.90625 C-321.0818232 62.05471138 -326.51671253 56.78778606 -331.91894531 51.34179688 C-333.51923325 49.73063607 -335.13014707 48.13064316 -336.7421875 46.53125 C-337.77668465 45.49543344 -338.81056242 44.45899782 -339.84375 43.421875 C-340.76349609 42.49987305 -341.68324219 41.57787109 -342.63085938 40.62792969 C-344.82240082 38.19699892 -346.43859695 35.86516164 -348 33 C-301.96858307 -11.75919184 -231.6025024 -42.91848583 -168 -49 C-166.72640625 -49.12375 -165.4528125 -49.2475 -164.140625 -49.375 C-105.4333539 -54.30704717 -47.70220303 -33.17040608 0 0 Z " fill="#308212" transform="translate(1576,995)"/>
<path d="M0 0 C0.89138672 0.43538086 1.78277344 0.87076172 2.70117188 1.31933594 C27.36840561 13.5062332 50.88822871 28.54108807 71.93359375 46.29296875 C74.09160008 48.1349246 74.09160008 48.1349246 77 50 C75.55909235 54.75231373 72.74353106 57.67811036 69.28515625 61.078125 C68.42959389 61.93443512 68.42959389 61.93443512 67.55674744 62.80804443 C66.34733122 64.01512438 65.13423079 65.21852275 63.91772461 66.41845703 C62.09129501 68.22157256 60.27825908 70.03733131 58.46679688 71.85546875 C51.6143832 78.6906964 44.58952757 84.98562739 37 91 C35.8979708 91.93454251 34.80166696 92.87594152 33.71484375 93.828125 C-18.31156964 139.19574287 -87.48674285 169.51877909 -157.27734375 164.77734375 C-215.82090242 159.83490301 -273.32198724 135.24406306 -320.22851562 100.31396484 C-322.22011992 98.83673024 -324.22709974 97.38164195 -326.234375 95.92578125 C-327.67770162 94.86803064 -329.12042046 93.80945017 -330.5625 92.75 C-331.22999268 92.266521 -331.89748535 91.78304199 -332.58520508 91.28491211 C-336.70545272 88.22369237 -339.86418336 85.06873714 -343 81 C-342.28714844 80.29875 -341.57429688 79.5975 -340.83984375 78.875 C-334.38091151 72.49670769 -334.38091151 72.49670769 -328.3125 65.75 C-325.54641033 62.52181064 -322.5858875 59.77459711 -319.34375 57.03125 C-317.01006491 55.00872292 -314.76051452 52.91009035 -312.51416016 50.79150391 C-305.87087986 44.54401034 -298.93893764 38.8335311 -291.69238281 33.30273438 C-290.09025356 32.06947389 -288.50924635 30.80891439 -286.9296875 29.546875 C-203.55425353 -36.55641024 -101.72090209 -48.46089097 0 0 Z " fill="#308212" transform="translate(695,977)"/>
<path d="M0 0 C2.4865818 0.3711662 3.70061719 0.66310277 5.39697266 2.57202148 C5.8151123 3.24821533 6.23325195 3.92440918 6.6640625 4.62109375 C7.14125732 5.38244629 7.61845215 6.14379883 8.11010742 6.92822266 C8.61002197 7.75628418 9.10993652 8.5843457 9.625 9.4375 C10.15134033 10.29134277 10.67768066 11.14518555 11.2199707 12.02490234 C15.99267983 19.83531316 20.49359007 27.78680418 24.83398438 35.84423828 C25.95320821 37.91349006 27.09158938 39.97103506 28.234375 42.02734375 C71.67791696 121.01472712 86.67679274 214.98261272 61.75 302.125 C45.86931297 355.23628822 18.77246641 403.56273768 -15.875 446.625 C-16.43493652 447.32496094 -16.99487305 448.02492188 -17.57177734 448.74609375 C-18.36769287 449.72642578 -18.36769287 449.72642578 -19.1796875 450.7265625 C-19.65132324 451.31002441 -20.12295898 451.89348633 -20.60888672 452.49462891 C-22 454 -22 454 -25 456 C-30.19783423 449.66642237 -34.54821087 443.09998638 -38.625 436 C-39.52677979 434.43620605 -39.52677979 434.43620605 -40.44677734 432.84082031 C-87.76032675 350.10092574 -111.69236755 254.77818445 -86.75 160.875 C-71.04889128 104.09161391 -42.52796298 51.43204499 -4.83984375 6.234375 C-3.16265268 4.19753149 -1.56406114 2.12439457 0 0 Z " fill="#8AE06E" transform="translate(884,438)"/>
<path d="M0 0 C5.19000783 0.6789589 7.10994233 4.42097054 10.1796875 8.31640625 C11.12143045 9.54301438 12.06136525 10.77101176 13 12 C13.56750977 12.73847168 14.13501953 13.47694336 14.71972656 14.23779297 C72.80416185 90.0234216 109.58956557 181.84980958 98.03515625 278.53125 C92.40892547 320.99336906 79.14466768 361.31467002 61 400 C60.58814453 400.88558594 60.17628906 401.77117187 59.75195312 402.68359375 C51.07228905 421.19828484 40.55153684 439.1363832 29 456 C25.1168331 454.21778883 22.80974274 451.81971737 20.125 448.5625 C19.65304199 447.99539307 19.18108398 447.42828613 18.69482422 446.84399414 C-40.49172913 374.74453387 -78.4060249 281.35343451 -70.0546875 187.21899414 C-63.29584737 120.67843248 -37.98199851 54.96218608 0 0 Z " fill="#8AE06E" transform="translate(1113,438)"/>
<path d="M0 0 C3.3661366 0.67556864 6.03230839 1.95539037 9.04296875 3.58984375 C10.02716797 4.12262939 11.01136719 4.65541504 12.02539062 5.2043457 C13.06888672 5.77628662 14.11238281 6.34822754 15.1875 6.9375 C16.25291016 7.51781982 17.31832031 8.09813965 18.41601562 8.69604492 C27.39060168 13.60983292 36.2343138 18.72391442 45 24 C43.36580285 29.26923825 40.0356256 33.22880816 36.75 37.5625 C35.46826092 39.27991467 34.18836545 40.99870655 32.91015625 42.71875 C32.2567627 43.59789062 31.60336914 44.47703125 30.93017578 45.3828125 C14.43035126 67.75545591 -0.5984188 91.23495007 -15 115 C-15.45987305 115.75603516 -15.91974609 116.51207031 -16.39355469 117.29101562 C-21.16949359 125.16906691 -25.66271274 133.10160776 -29.69848633 141.3840332 C-32.78825316 147.68745788 -36.14210734 153.83619704 -39.5 160 C-52.76647928 184.4833873 -64.97385537 209.42554782 -76 235 C-76.28941467 235.6688623 -76.57882935 236.33772461 -76.87701416 237.02685547 C-87.53626961 261.67624798 -97.08601267 286.66966332 -106 312 C-106.26792358 312.75909668 -106.53584717 313.51819336 -106.81188965 314.30029297 C-138.32414211 403.72470329 -157.45898582 497.52545268 -176 725 C-176.33 725 -176.66 725 -177 725 C-177.18672775 724.03757637 -177.18672775 724.03757637 -177.37722778 723.05570984 C-178.70383285 716.22207758 -180.03563184 709.38947068 -181.37011719 702.55737305 C-181.86389485 700.02604389 -182.3564575 697.49447734 -182.84765625 694.96264648 C-187.4796426 671.09557747 -192.59475432 647.3612531 -198.36328125 623.7421875 C-199.40867384 619.44784695 -200.44291206 615.15107031 -201.46684265 610.85157776 C-205.90502211 591.88741773 -205.90502211 591.88741773 -211.15454102 573.13842773 C-212.62268549 568.35963243 -213.91750943 563.55097676 -215.17626953 558.71289062 C-223.04050179 528.63581504 -232.7476601 499.05688859 -243.01579285 469.72476196 C-245.05250556 463.89218489 -246.99229207 458.0292351 -248.91650391 452.15869141 C-249.8065086 449.56408105 -250.79446403 447.08009397 -251.875 444.5625 C-254.05989969 437.64365099 -251.67946395 431.36857245 -249.11328125 424.8828125 C-248.82007996 424.12131393 -248.52687866 423.35981537 -248.22479248 422.57524109 C-247.26364756 420.08796834 -246.28877161 417.60637062 -245.3125 415.125 C-244.62982376 413.37340916 -243.94745517 411.62169837 -243.26538086 409.86987305 C-232.21890048 381.58519577 -220.43319726 353.67104574 -207.90899658 326.00939941 C-207.06442563 324.14241729 -206.22323476 322.27390712 -205.38232422 320.40527344 C-191.95133557 290.62710087 -177.50130412 261.06906 -161.45898438 232.60595703 C-159.80026977 229.64325294 -158.17284497 226.66439029 -156.546875 223.68359375 C-148.08340564 208.21950455 -139.12556003 193.13107057 -129.8984375 178.11523438 C-128.24922478 175.40896453 -126.62930262 172.68979011 -125.03125 169.953125 C-116.16519937 154.78963353 -106.30979187 140.28692106 -96.50244141 125.72314453 C-94.24107828 122.36318013 -91.99780887 118.99144098 -89.7578125 115.6171875 C-86.28461075 110.4021011 -82.72972869 105.24985111 -79.125 100.125 C-78.5256665 99.27220459 -77.92633301 98.41940918 -77.30883789 97.54077148 C-76.10561533 95.83016785 -74.90161595 94.12011031 -73.69677734 92.41064453 C-72.14295373 90.20309714 -70.59605803 87.99087704 -69.05078125 85.77734375 C-68.1800557 84.53880357 -67.30898754 83.30050414 -66.4375 82.0625 C-65.69371094 81.00160156 -64.94992187 79.94070313 -64.18359375 78.84765625 C-61.97830757 75.97171059 -59.56974938 73.54954695 -57 71 C-55.56867153 69.19424237 -54.17369638 67.35919505 -52.8125 65.5 C-52.03003906 64.44296875 -51.24757813 63.3859375 -50.44140625 62.296875 C-49.83643311 61.47799805 -49.83643311 61.47799805 -49.21923828 60.64257812 C-42.40553924 51.46304926 -35.25994901 42.56502946 -28.02734375 33.71484375 C-25.63710118 30.78902204 -23.27922027 27.83988076 -20.9375 24.875 C-16.70694918 19.56430855 -12.26831983 14.43549593 -7.83203125 9.296875 C-5.18492329 6.2275011 -2.58637917 3.12067688 0 0 Z " fill="#5A2E21" transform="translate(1254,812)"/>
<path d="M0 0 C-0.67072882 4.00464563 -2.67906267 7.20525219 -4.75 10.625 C-5.3368457 11.59711426 -5.3368457 11.59711426 -5.93554688 12.58886719 C-13.61987733 25.07442415 -22.51610675 36.83479693 -32 48 C-32.85115557 49.03572335 -33.70136746 50.07222271 -34.55078125 51.109375 C-46.30512791 65.30977294 -59.35073804 78.77975047 -74 90 C-75.03768172 90.84717642 -76.07268556 91.69763993 -77.10546875 92.55078125 C-86.51723031 100.25619622 -96.5581113 106.77794949 -107 113 C-107.64018066 113.38285156 -108.28036133 113.76570312 -108.93994141 114.16015625 C-138.34529884 131.46963627 -171.75883877 138.46227395 -205.5625 138.3125 C-206.4415097 138.31034485 -207.32051941 138.3081897 -208.22616577 138.30596924 C-222.01746375 138.25184584 -235.43230142 137.65486085 -249 135 C-250.55654297 134.70198486 -250.55654297 134.70198486 -252.14453125 134.39794922 C-286.20090006 127.71973941 -318.29672011 116.13935237 -349 100 C-347.39750986 95.46251434 -345.05675845 91.6064274 -342.5 87.5625 C-342.05567627 86.85802734 -341.61135254 86.15355469 -341.15356445 85.42773438 C-330.73671515 69.06653731 -318.78605362 53.88977203 -305.5390625 39.7265625 C-303.18023547 37.19354517 -300.9010756 34.60714115 -298.625 32 C-261.27292895 -9.45814978 -208.62492033 -35.74682418 -152.96875 -38.88671875 C-102.5258979 -40.32652457 -42.54831857 -28.55216115 0 0 Z " fill="#216307" transform="translate(1838,822)"/>
<path d="M0 0 C0.69544922 0.16306641 1.39089844 0.32613281 2.10742188 0.49414062 C35.8850192 8.6384028 65.28746582 28.29833871 91 51 C91.52126465 51.45810059 92.0425293 51.91620117 92.57958984 52.38818359 C105.48444856 63.8014263 117.46102191 76.36565772 128 90 C128.6815918 90.88075195 128.6815918 90.88075195 129.37695312 91.77929688 C156 126.3296278 156 126.3296278 156 133 C126.83512763 148.51183925 96.3657503 159.49343609 64.0625 166.3125 C62.91458984 166.55524658 61.76667969 166.79799316 60.58398438 167.0480957 C44.79428665 170.23103035 29.3346497 171.38385759 13.25 171.3125 C12.37159454 171.31034485 11.49318909 171.3081897 10.58816528 171.30596924 C-2.48537227 171.25456705 -15.19360757 170.85252232 -28 168 C-28.88751953 167.81195801 -29.77503906 167.62391602 -30.68945312 167.43017578 C-64.19353449 160.15397843 -93.87066299 143.91096442 -120 122 C-120.49467773 121.59410645 -120.98935547 121.18821289 -121.49902344 120.77001953 C-134.71776799 109.91660857 -147.41782191 98.06923033 -157.98046875 84.578125 C-160.16118228 81.79423539 -162.44959825 79.12313649 -164.75 76.4375 C-173.53003151 65.89873547 -181.45221576 54.65434617 -188.875 43.125 C-189.31005859 42.46532227 -189.74511719 41.80564453 -190.19335938 41.12597656 C-193.02322291 36.62220872 -193.02322291 36.62220872 -192.92456055 33.97875977 C-191.5589109 31.05597382 -189.72167334 30.4631813 -186.83984375 29.08203125 C-185.74865234 28.55440186 -184.65746094 28.02677246 -183.53320312 27.4831543 C-182.34662109 26.93183838 -181.16003906 26.38052246 -179.9375 25.8125 C-179.33043213 25.52653961 -178.72336426 25.24057922 -178.09790039 24.94595337 C-123.10550333 -0.94284444 -60.01825186 -14.50140049 0 0 Z " fill="#216307" transform="translate(355,789)"/>
<path d="M0 0 C25.54816413 10.44091639 48.7582706 62.92082784 58.8125 86.4375 C81.18252432 140.46738509 81.38227338 195.14037961 59.11816406 249.35742188 C45.26414953 282.09887457 25.24021036 310.31228898 2 337 C-2.16425197 335.42618646 -4.5918696 332.38088337 -7.375 329.0625 C-8.15230469 328.14247192 -8.15230469 328.14247192 -8.9453125 327.20385742 C-30.07307422 301.84111132 -48.41045529 272.99293582 -60 242 C-60.34015137 241.09056641 -60.68030273 240.18113281 -61.03076172 239.24414062 C-80.479551 186.26883077 -77.58940973 131.12290432 -53.9728241 79.97982788 C-44.84884726 60.50128063 -33.98816349 42.1618423 -21 25 C-20.33919434 24.12504883 -20.33919434 24.12504883 -19.66503906 23.23242188 C-13.49434938 15.11286284 -6.9887046 7.42834111 0 0 Z " fill="#308212" transform="translate(999,785)"/>
<path d="M0 0 C0.33 0 0.66 0 1 0 C1 4.62 1 9.24 1 14 C0.01 14 -0.98 14 -2 14 C-1.34 9.38 -0.68 4.76 0 0 Z " fill="#633225" transform="translate(922,1548)"/>
</svg>
